<?xml version="1.0" encoding="utf-8"?>
<!-- Generator: Adobe Illustrator 28.0.0, SVG Export Plug-In . SVG Version: 6.00 Build 0)  -->
<svg version="1.1" id="Layer_1" xmlns="http://www.w3.org/2000/svg" xmlns:xlink="http://www.w3.org/1999/xlink" x="0px" y="0px"
	 viewBox="0 0 84.7 44.2" width="85" height="44" style="enable-background:new 0 0 84.7 44.2;" xml:space="preserve">
<style type="text/css">
	.st0{fill:#E21416;}
</style>
<g>
	<g>
		<g>
			<path class="st0" d="M5,33.8h7.3v1.2h-6v3.1h5.5v1.2H6.3v3.4h6.1v1.2H5V33.8L5,33.8z"/>
		</g>
		<g>
			<path class="st0" d="M19.8,43.9h-1.6l3.6-5.2l-3.3-4.9H20l2.5,3.9l2.5-3.9h1.6l-3.3,4.9l3.5,5.2h-1.7l-2.7-4.1L19.8,43.9z"/>
		</g>
		<g>
			<path class="st0" d="M36.2,33.8h1.5l3.7,10.1h-1.5l-1.1-3h-4l-1.1,3h-1.4L36.2,33.8z M38.4,39.8l-1.5-4.4l-1.6,4.5L38.4,39.8
				L38.4,39.8z"/>
		</g>
		<g>
			<path class="st0" d="M48.1,33.8h2l2.9,8.5l2.9-8.5h1.9v10.1h-1.3v-6c0-0.2,0-0.5,0-1c0-0.5,0-1,0-1.5l-2.9,8.5h-1.4l-2.9-8.5v0.3
				c0,0.3,0,0.6,0,1.1c0,0.5,0,0.9,0,1.1v6H48L48.1,33.8L48.1,33.8z"/>
		</g>
		<g>
			<path class="st0" d="M65.7,40.7c0,0.6,0.2,1,0.4,1.4c0.4,0.7,1.2,1,2.3,1c0.5,0,0.9-0.1,1.4-0.2c0.8-0.3,1.2-0.8,1.2-1.5
				c0-0.5-0.2-0.9-0.5-1.2c-0.3-0.2-0.9-0.4-1.6-0.6l-1.3-0.3c-0.9-0.2-1.5-0.4-1.8-0.7c-0.6-0.4-0.9-1-0.9-1.9
				c0-0.9,0.3-1.6,0.9-2.2c0.6-0.6,1.5-0.9,2.6-0.9c1,0,1.9,0.3,2.6,0.8c0.7,0.5,1.1,1.3,1.1,2.5h-1.3c-0.1-0.5-0.2-1-0.4-1.2
				c-0.4-0.5-1.1-0.8-2-0.8c-0.8,0-1.3,0.2-1.7,0.5C66.2,35.6,66,36,66,36.5c0,0.5,0.2,0.9,0.6,1.1c0.3,0.1,0.9,0.3,1.8,0.5l1.4,0.3
				c0.7,0.2,1.2,0.4,1.5,0.6c0.6,0.5,0.9,1.2,0.9,2.1c0,1.1-0.4,1.9-1.2,2.4c-0.8,0.5-1.7,0.7-2.8,0.7c-1.2,0-2.2-0.3-2.9-1
				c-0.7-0.6-1-1.5-1-2.6L65.7,40.7L65.7,40.7z"/>
		</g>
	</g>
	<g>
		<path d="M0,29.1V10.7h6v6.2h5.7v-6.2h6v18.3h-6V22H6v7.1H0L0,29.1z"/>
		<path d="M19.5,29.1V10.7h6v18.3H19.5L19.5,29.1z"/>
		<path d="M27.1,29.1V10.7h8.8c5.3,0,7.8,2.4,7.8,6.2c0,3.9-2.3,6.4-7.6,6.4h-3v5.7H27.1L27.1,29.1z M35.6,19.1
			c1.4,0,2.4-0.6,2.4-2.1c0-1.7-1.9-1.9-3.2-1.9h-1.7v4.1H35.6z"/>
		<path d="M41.7,29.1l6.6-18.3h6.1l6.6,18.3h-6l-0.7-2.4h-6l-0.7,2.4H41.7z M51.3,16.3l-1.9,6.6h3.8L51.3,16.3z"/>
		<path d="M58.5,29.1L65,10.7h6.1l6.6,18.3h-6L71,26.6h-6l-0.7,2.4H58.5z M68,16.3l-1.9,6.6H70L68,16.3z"/>
		<g>
			<path d="M71.3,7.8V6.3h6.3V0h1.5v6.3h5.6v1.5h-5.6v6.3h-1.5V7.8H71.3L71.3,7.8z"/>
		</g>
	</g>
</g>
</svg>
